<?xml version="1.0" encoding="UTF-8" standalone="no"?>
<!DOCTYPE svg PUBLIC "-//W3C//DTD SVG 1.1//EN"
        "http://www.w3.org/Graphics/SVG/1.1/DTD/svg11.dtd">
<svg width="100%" height="100%" viewBox="0 0 208 129" version="1.1" xmlns="http://www.w3.org/2000/svg"  xml:space="preserve" style="fill-rule:evenodd;clip-rule:evenodd;stroke-linejoin:round;stroke-miterlimit:1.41421;">
    <g id="_208x128-Cutout" transform="matrix(1,0,0,1,-696,-200)">
        <path d="M889,328L711,328C702.716,328 696,321.284 696,313L696,215C696,206.716 702.716,200 711,200L889,200C897.284,200 904,206.716 904,215L904,313C904,321.267 897.313,327.972 889,328ZM889,318C891.776,317.985 894,315.752 894,313L894,215C894,212.239 891.761,210 889,210L711,210C708.239,210 706,212.239 706,215L706,313C706,315.761 708.239,318 711,318L889,318ZM784,258L804,233L824,233L824,301L804,301L804,262L784,287L764,262L764,301L744,301L744,233L764,233L784,258ZM854.65,258.742L845.395,258.742L835.288,222.438L845.874,222.438L848.028,230.311L858.959,230.311L861.273,222.438L865.395,222.438L854.65,258.742ZM857.921,233.954L849.012,233.954L853.294,250.045L857.921,233.954Z"/>
    </g>
</svg>
